<svg xmlns="http://www.w3.org/2000/svg" viewBox="0 0 24 24" id="picture"><rect width="17.5" height="17.5" x="3.25" y="3.25" fill="#c8e4fe" rx="2.75" ry="2.75"></rect><path fill="#97d729" d="m17.032,13.857c-.596-.469-1.42-.499-2.051-.08l-1.886,1.258-2.858-2.858c-.682-.682-1.793-.682-2.475,0l-4.513,4.513v1.311c0,1.517,1.233,2.75,2.75,2.75h12c1.517,0,2.75-1.233,2.75-2.75v-1.046l-3.718-3.097Z"></path><circle cx="14" cy="9" r="2.75" fill="#ffc344"></circle><path fill="#494249" d="m18,3.25H6c-1.517,0-2.75,1.233-2.75,2.75v12c0,1.517,1.233,2.75,2.75,2.75h12c1.517,0,2.75-1.233,2.75-2.75V6c0-1.517-1.233-2.75-2.75-2.75Zm-12,1.5h12c.689,0,1.25.561,1.25,1.25v9.597l-2.218-1.74c-.596-.469-1.42-.499-2.051-.08l-1.886,1.258-2.858-2.858c-.66-.662-1.814-.662-2.475,0l-3.013,3.013V6c0-.689.561-1.25,1.25-1.25Zm12,14.5H6c-.689,0-1.25-.561-1.25-1.25v-.689l4.073-4.073c.098-.098.256-.098.354,0l4.293,4.293c.146.146.338.22.53.22s.384-.073.53-.22c.293-.293.293-.768,0-1.061l-.353-.353,1.636-1.091c.089-.06.206-.054.293.012l3.144,2.466v.497c0,.689-.561,1.25-1.25,1.25Z"></path><path fill="#494249" d="m14,11.75c1.517,0,2.75-1.233,2.75-2.75s-1.233-2.75-2.75-2.75-2.75,1.233-2.75,2.75,1.233,2.75,2.75,2.75Zm0-4c.689,0,1.25.561,1.25,1.25s-.561,1.25-1.25,1.25-1.25-.561-1.25-1.25.561-1.25,1.25-1.25Z"></path></svg>